<?xml version="1.0" encoding="UTF-8" standalone="no"?>
<!-- Created with Inkscape (http://www.inkscape.org/) -->

<svg
   xmlns:dc="http://purl.org/dc/elements/1.1/"
   xmlns:cc="http://creativecommons.org/ns#"
   xmlns:rdf="http://www.w3.org/1999/02/22-rdf-syntax-ns#"
   xmlns:svg="http://www.w3.org/2000/svg"
   xmlns="http://www.w3.org/2000/svg"
   xmlns:sodipodi="http://sodipodi.sourceforge.net/DTD/sodipodi-0.dtd"
   xmlns:inkscape="http://www.inkscape.org/namespaces/inkscape"
   id="svg2837"
   version="1.1"
   inkscape:version="0.47 r22583"
   width="99.218636"
   height="60.918633"
   xml:space="preserve"
   sodipodi:docname="pagefitto100x60lessborder.png"><metadata
     id="metadata2843"><rdf:RDF><cc:Work
         rdf:about=""><dc:format>image/svg+xml</dc:format><dc:type
           rdf:resource="http://purl.org/dc/dcmitype/StillImage" /><dc:title></dc:title></cc:Work></rdf:RDF></metadata><defs
     id="defs2841"><inkscape:perspective
       sodipodi:type="inkscape:persp3d"
       inkscape:vp_x="0 : 0.5 : 1"
       inkscape:vp_y="0 : 1000 : 0"
       inkscape:vp_z="1 : 0.5 : 1"
       inkscape:persp3d-origin="0.5 : 0.33333333 : 1"
       id="perspective2845" /></defs><sodipodi:namedview
     pagecolor="#ffffff"
     bordercolor="#666666"
     borderopacity="1"
     objecttolerance="10"
     gridtolerance="10"
     guidetolerance="10"
     inkscape:pageopacity="0"
     inkscape:pageshadow="2"
     inkscape:window-width="956"
     inkscape:window-height="881"
     id="namedview2839"
     showgrid="false"
     inkscape:zoom="0.95353535"
     inkscape:cx="219.86723"
     inkscape:cy="-50.463719"
     inkscape:window-x="0"
     inkscape:window-y="15"
     inkscape:window-maximized="0"
     inkscape:current-layer="g2847"
     inkscape:snap-grids="false"
     inkscape:snap-global="false" /><g
     id="g2847"
     inkscape:groupmode="layer"
     inkscape:label="ink_ext_XXXXXX"
     transform="matrix(1.25,0,0,-1.25,-236.40446,538.0093)"><path
       id="path2981"
       style="fill:#000000;fill-opacity:1;fill-rule:nonzero;stroke:none"
       d="m 226.64408,420.04073 c 0,1.548 -1.25494,2.80293 -2.80286,2.80293 -1.54794,0 -2.80317,-1.25493 -2.80317,-2.80293 0,-1.54792 1.25523,-2.80287 2.80317,-2.80287 1.54792,0 2.80286,1.25495 2.80286,2.80287" /><path
       id="path2983"
       style="fill:none;stroke:#000000;stroke-width:0.35036668;stroke-linecap:butt;stroke-linejoin:miter;stroke-miterlimit:10;stroke-opacity:1;stroke-dasharray:none"
       d="m 226.64408,420.04073 c 0,1.548 -1.25494,2.80293 -2.80286,2.80293 -1.54794,0 -2.80317,-1.25493 -2.80317,-2.80293 0,-1.54792 1.25523,-2.80287 2.80317,-2.80287 1.54792,0 2.80286,1.25495 2.80286,2.80287" /><path
       id="path2985"
       style="fill:#ff0000;fill-opacity:1;fill-rule:nonzero;stroke:none"
       d="m 212.62957,385.00432 c 0,1.54781 -1.25511,2.80292 -2.80292,2.80292 -1.54795,0 -2.80289,-1.25511 -2.80289,-2.80292 0,-1.54795 1.25494,-2.80289 2.80289,-2.80289 1.54781,0 2.80292,1.25494 2.80292,2.80289" /><path
       id="path2987"
       style="fill:none;stroke:#000000;stroke-width:0.35036668;stroke-linecap:butt;stroke-linejoin:miter;stroke-miterlimit:10;stroke-opacity:1;stroke-dasharray:none"
       d="m 212.62957,385.00432 c 0,1.54781 -1.25511,2.80292 -2.80292,2.80292 -1.54795,0 -2.80289,-1.25511 -2.80289,-2.80292 0,-1.54795 1.25494,-2.80289 2.80289,-2.80289 1.54781,0 2.80292,1.25494 2.80292,2.80289" /><path
       id="path2989"
       style="fill:#000000;fill-opacity:1;fill-rule:nonzero;stroke:none"
       d="m 244.16232,385.00432 c 0,1.54781 -1.25496,2.80292 -2.80288,2.80292 -1.54789,0 -2.80294,-1.25511 -2.80294,-2.80292 0,-1.54795 1.25505,-2.80289 2.80294,-2.80289 1.54792,0 2.80288,1.25494 2.80288,2.80289" /><path
       id="path2991"
       style="fill:none;stroke:#000000;stroke-width:0.35036668;stroke-linecap:butt;stroke-linejoin:miter;stroke-miterlimit:10;stroke-opacity:1;stroke-dasharray:none"
       d="m 244.16232,385.00432 c 0,1.54781 -1.25496,2.80292 -2.80288,2.80292 -1.54789,0 -2.80294,-1.25511 -2.80294,-2.80292 0,-1.54795 1.25505,-2.80289 2.80294,-2.80289 1.54792,0 2.80288,1.25494 2.80288,2.80289" /><path
       id="path2993"
       style="fill:none;stroke:#000000;stroke-width:0.35036668;stroke-linecap:butt;stroke-linejoin:miter;stroke-miterlimit:10;stroke-opacity:1;stroke-dasharray:none"
       d="m 210.86737,387.60669 11.93277,29.8316 m -2.34213,-2.08182 2.34213,2.08182 0.26018,-3.12295" /><path
       id="path2995"
       style="fill:none;stroke:#000000;stroke-width:0.35036668;stroke-linecap:butt;stroke-linejoin:miter;stroke-miterlimit:10;stroke-opacity:1;stroke-dasharray:none"
       d="m 212.62957,385.00432 25.92693,0 m -2.80294,1.40123 2.80294,-1.40123 -2.80294,-1.40169" /><path
       id="path2997"
       style="fill:#ff0000;fill-opacity:1;fill-rule:nonzero;stroke:none"
       d="m 237.15516,427.04806 c 0,1.54797 -1.25523,2.803 -2.80315,2.803 -1.54795,0 -2.80282,-1.25503 -2.80282,-2.803 0,-1.54783 1.25487,-2.80283 2.80282,-2.80283 1.54792,0 2.80315,1.255 2.80315,2.80283" /><path
       id="path2999"
       style="fill:none;stroke:#000000;stroke-width:0.35036668;stroke-linecap:butt;stroke-linejoin:miter;stroke-miterlimit:10;stroke-opacity:1;stroke-dasharray:none"
       d="m 237.15516,427.04806 c 0,1.54797 -1.25523,2.803 -2.80315,2.803 -1.54795,0 -2.80282,-1.25503 -2.80282,-2.803 0,-1.54783 1.25487,-2.80283 2.80282,-2.80283 1.54792,0 2.80315,1.255 2.80315,2.80283" /><path
       id="path3001"
       style="fill:#000000;fill-opacity:1;fill-rule:nonzero;stroke:none"
       d="m 223.14043,392.0116 c 0,1.54793 -1.25487,2.80292 -2.80286,2.80292 -1.54798,0 -2.80304,-1.25499 -2.80304,-2.80292 0,-1.5479 1.25506,-2.80294 2.80304,-2.80294 1.54799,0 2.80286,1.25504 2.80286,2.80294" /><path
       id="path3003"
       style="fill:none;stroke:#000000;stroke-width:0.35036668;stroke-linecap:butt;stroke-linejoin:miter;stroke-miterlimit:10;stroke-opacity:1;stroke-dasharray:none"
       d="m 223.14043,392.0116 c 0,1.54793 -1.25487,2.80292 -2.80286,2.80292 -1.54798,0 -2.80304,-1.25499 -2.80304,-2.80292 0,-1.5479 1.25506,-2.80294 2.80304,-2.80294 1.54799,0 2.80286,1.25504 2.80286,2.80294" /><path
       id="path3005"
       style="fill:#000000;fill-opacity:1;fill-rule:nonzero;stroke:none"
       d="m 251.16957,392.0116 c 0,1.54793 -1.25478,2.80292 -2.80275,2.80292 -1.54792,0 -2.80309,-1.25499 -2.80309,-2.80292 0,-1.5479 1.25517,-2.80294 2.80309,-2.80294 1.54797,0 2.80275,1.25504 2.80275,2.80294" /><path
       id="path3007"
       style="fill:none;stroke:#000000;stroke-width:0.35036668;stroke-linecap:butt;stroke-linejoin:miter;stroke-miterlimit:10;stroke-opacity:1;stroke-dasharray:none"
       d="m 251.16957,392.0116 c 0,1.54793 -1.25478,2.80292 -2.80275,2.80292 -1.54792,0 -2.80309,-1.25499 -2.80309,-2.80292 0,-1.5479 1.25517,-2.80294 2.80309,-2.80294 1.54797,0 2.80275,1.25504 2.80275,2.80294" /><path
       id="path3009"
       style="fill:none;stroke:#000000;stroke-width:0.35036668;stroke-linecap:butt;stroke-linejoin:miter;stroke-miterlimit:10;stroke-opacity:1;stroke-dasharray:none"
       d="m 233.31135,424.44552 -11.93302,-29.83174 m 2.34245,2.08194 -2.34245,-2.08194 -0.25999,3.12321" /><path
       id="path3011"
       style="fill:none;stroke:#000000;stroke-width:0.35036668;stroke-linecap:butt;stroke-linejoin:miter;stroke-miterlimit:10;stroke-opacity:1;stroke-dasharray:none"
       d="m 235.39313,424.44552 11.93279,-29.83174 m 0.25981,3.12321 -0.25981,-3.12321 -2.34238,2.08194" /><path
       id="path3013"
       style="fill:#000000;fill-opacity:1;fill-rule:nonzero;stroke:none"
       d="m 227.21136,412.9701 -1.29469,-3.23715 -1.30109,0.52072 1.56145,-3.64337 3.64325,1.56099 -1.30126,0.52082 1.29491,3.23689" /><path
       id="path3015"
       style="fill:none;stroke:#000000;stroke-width:0.35036668;stroke-linecap:butt;stroke-linejoin:miter;stroke-miterlimit:10;stroke-opacity:1;stroke-dasharray:none"
       d="m 227.34489,409.52968 18.86851,-15.72377 m -1.25588,2.87092 1.25588,-2.87092 -3.05007,0.71749" /><rect
       style="fill:#000000;fill-opacity:0;fill-rule:evenodd;stroke:#000000;stroke-width:0;stroke-linecap:butt;stroke-linejoin:miter;stroke-miterlimit:4;stroke-opacity:1;stroke-dasharray:none"
       id="rect2840"
       width="79.374908"
       height="48.734905"
       x="189.12357"
       y="-430.40744"
       transform="scale(1,-1)" /></g></svg>